<svg width="24" height="45" viewBox="0 0 24 45" fill="none" xmlns="http://www.w3.org/2000/svg">
<g clip-path="url(#clip0_1_957)">
<path fill-rule="evenodd" clip-rule="evenodd" d="M23.4993 43.7726C23.341 43.9304 23.1529 44.0557 22.9458 44.1411C22.7387 44.2265 22.5167 44.2705 22.2925 44.2705C22.0683 44.2705 21.8463 44.2265 21.6392 44.1411C21.4321 44.0557 21.244 43.9304 21.0857 43.7726L0.631107 23.4354C0.472368 23.278 0.346428 23.091 0.260496 22.8851C0.174566 22.6792 0.130333 22.4585 0.130333 22.2356C0.130333 22.0126 0.174566 21.7919 0.260496 21.586C0.346428 21.3801 0.472368 21.1931 0.631107 21.0357L21.0857 0.698505C21.4057 0.380272 21.8398 0.201492 22.2925 0.201492C22.7451 0.201492 23.1792 0.380272 23.4993 0.698505C23.8194 1.01674 23.9992 1.44835 23.9992 1.8984C23.9992 2.34844 23.8194 2.78006 23.4993 3.09829L4.24815 22.2356L23.4993 41.3728C23.658 41.5303 23.784 41.7173 23.8699 41.9232C23.9558 42.1291 24.0001 42.3498 24.0001 42.5727C24.0001 42.7956 23.9558 43.0164 23.8699 43.2223C23.784 43.4282 23.658 43.6152 23.4993 43.7726Z" fill="white"/>
</g>
<defs>
<clipPath id="clip0_1_957">
<rect width="24" height="44.4706" fill="white" transform="translate(24 44.4707) rotate(-180)"/>
</clipPath>
</defs>
</svg>
